<mxfile host="app.diagrams.net" modified="2023-05-16T00:52:41.392Z" agent="Mozilla/5.0 (Windows NT 10.0; Win64; x64) AppleWebKit/537.36 (KHTML, like Gecko) Chrome/113.0.0.0 Safari/537.36 Edg/113.0.1774.42" etag="--6Ax5G9x5p6pjmHiMu3" version="21.3.2" type="github">
  <diagram name="Page-1" id="GobAYcb5wS0Ej7F73sYG">
    <mxGraphModel dx="2583" dy="783" grid="1" gridSize="10" guides="1" tooltips="1" connect="1" arrows="1" fold="1" page="0" pageScale="1" pageWidth="827" pageHeight="1169" math="0" shadow="0">
      <root>
        <mxCell id="0" />
        <mxCell id="1" parent="0" />
        <mxCell id="-8TWieEKrlzfq7wESUr1-1" value="Delphix Masking Engine" style="rounded=1;whiteSpace=wrap;html=1;fontSize=14;" vertex="1" parent="1">
          <mxGeometry x="-60" y="600" width="280" height="180" as="geometry" />
        </mxCell>
        <mxCell id="-8TWieEKrlzfq7wESUr1-3" value="Data ingestion" style="edgeStyle=orthogonalEdgeStyle;rounded=0;orthogonalLoop=1;jettySize=auto;html=1;" edge="1" parent="1" source="-8TWieEKrlzfq7wESUr1-2" target="-8TWieEKrlzfq7wESUr1-1">
          <mxGeometry relative="1" as="geometry" />
        </mxCell>
        <mxCell id="-8TWieEKrlzfq7wESUr1-2" value="" style="image;aspect=fixed;perimeter=ellipsePerimeter;html=1;align=center;shadow=0;dashed=0;spacingTop=3;image=img/lib/active_directory/databases.svg;" vertex="1" parent="1">
          <mxGeometry x="-290" y="645" width="91.84" height="90" as="geometry" />
        </mxCell>
      </root>
    </mxGraphModel>
  </diagram>
</mxfile>
